<!DOCTYPE svg PUBLIC "-//W3C//DTD SVG 20010904//EN" "http://www.w3.org/TR/2001/REC-SVG-20010904/DTD/svg10.dtd">
<svg version="1.0" xmlns="http://www.w3.org/2000/svg" width="99px" height="99px" viewBox="0 0 990 990" preserveAspectRatio="xMidYMid meet">
<g id="layer101" fill="#0a635b" stroke="none">
 <path d="M376 979 c-118 -28 -251 -130 -314 -240 -83 -146 -83 -342 0 -488 63 -111 197 -212 318 -240 58 -13 172 -13 230 0 171 39 330 198 369 369 25 110 8 240 -46 349 -55 111 -199 221 -325 251 -53 12 -179 11 -232 -1z"/>
 </g>
<g id="layer102" fill="#606768" stroke="none">
 <path d="M396 903 c-18 -24 -20 -25 -26 -8 -6 17 -9 15 -25 -12 l-18 -31 -24 27 c-13 14 -21 19 -17 10 3 -10 0 -20 -7 -25 -8 -5 -10 -3 -4 7 7 11 6 11 -9 -1 -16 -12 -20 -12 -35 8 l-16 22 -25 -45 c-27 -49 -34 -54 -45 -27 -6 15 -10 13 -31 -13 -131 -159 -152 -389 -52 -564 63 -111 197 -212 318 -240 58 -13 172 -13 230 0 171 39 330 198 369 369 33 141 -4 307 -95 425 l-26 35 -17 -22 c-18 -21 -18 -21 -51 31 -29 44 -35 49 -43 35 -9 -16 -11 -16 -22 0 -12 16 -15 15 -31 -13 -22 -37 -29 -38 -45 -9 l-11 21 -18 -23 -17 -23 -18 27 -18 27 -25 -38 c-14 -21 -28 -42 -33 -47 -4 -4 -26 21 -49 58 -23 36 -43 66 -43 66 -1 0 -11 -13 -21 -27z"/>
 </g>
<g id="layer103" fill="#3ea47b" stroke="none">
 <path d="M396 903 c-18 -24 -20 -25 -26 -8 -6 17 -9 15 -25 -12 l-18 -31 -24 27 c-13 14 -21 19 -17 10 3 -10 0 -20 -7 -25 -8 -5 -10 -3 -4 7 7 11 6 11 -9 -1 -16 -12 -20 -12 -35 8 l-16 22 -25 -45 c-13 -25 -26 -45 -29 -45 -2 0 -9 7 -16 16 -10 14 -16 11 -44 -27 -17 -24 -44 -69 -59 -99 -26 -52 -27 -62 -27 -206 l0 -150 35 -70 c63 -125 198 -233 330 -263 58 -13 172 -13 230 0 171 39 330 198 369 369 33 141 -4 307 -95 425 l-26 35 -17 -22 c-18 -21 -18 -21 -51 31 -29 44 -35 49 -43 35 -9 -16 -11 -16 -22 0 -12 16 -15 15 -31 -13 -22 -37 -29 -38 -45 -9 l-11 21 -18 -23 -17 -23 -18 27 -18 27 -25 -38 c-14 -21 -28 -42 -33 -47 -4 -4 -26 21 -49 58 -23 36 -43 66 -43 66 -1 0 -11 -13 -21 -27z"/>
 </g>
<g id="layer104" fill="#a9e4ee" stroke="none">
 <path d="M250 425 c-113 -28 -213 -50 -224 -47 -23 6 -18 -16 27 -108 59 -120 197 -229 327 -259 57 -13 172 -13 229 0 155 35 293 158 353 314 23 60 21 72 -9 56 -14 -7 -75 4 -244 45 -123 29 -231 53 -239 52 -8 0 -107 -25 -220 -53z"/>
 </g>
<g id="layer105" fill="#c9e6d9" stroke="none">
 <path d="M253 426 c-186 -47 -243 -66 -199 -66 10 0 112 -40 227 -90 l209 -89 210 89 c115 50 220 90 232 91 13 0 -6 9 -42 20 -36 11 -73 18 -82 15 -10 -2 -18 0 -18 6 0 6 -11 7 -26 4 -18 -5 -24 -3 -18 5 5 8 -1 10 -19 7 -15 -3 -24 -2 -22 2 6 11 -51 21 -72 13 -12 -5 -14 -3 -8 7 6 10 2 12 -18 8 -15 -3 -24 -2 -22 2 4 7 -98 32 -119 28 -6 0 -102 -24 -213 -52z"/>
 </g>
<g id="layer106" fill="#feffff" stroke="none">
 <path d="M238 421 c-172 -42 -228 -61 -184 -61 10 0 107 -38 216 -85 109 -47 201 -85 204 -85 3 0 6 60 6 134 0 120 2 135 18 139 9 3 -3 5 -28 5 -25 0 -129 -21 -232 -47z"/>
 </g>

</svg>