<!DOCTYPE svg PUBLIC "-//W3C//DTD SVG 20010904//EN" "http://www.w3.org/TR/2001/REC-SVG-20010904/DTD/svg10.dtd">
<svg version="1.0" xmlns="http://www.w3.org/2000/svg" width="99px" height="99px" viewBox="0 0 990 990" preserveAspectRatio="xMidYMid meet">
<g id="layer101" fill="#d04c2b" stroke="none">
<path d="M376 979 c-118 -28 -251 -130 -314 -240 -83 -146 -83 -342 0 -488 63 -111 197 -212 318 -240 58 -13 172 -13 230 0 171 39 330 198 369 369 25 110 8 240 -46 349 -55 111 -199 221 -325 251 -53 12 -179 11 -232 -1z"/>
</g>
<g id="layer102" fill="#e17b3d" stroke="none">
<path d="M376 979 c-107 -25 -257 -133 -299 -216 -19 -35 -7 -55 15 -25 15 21 45 42 34 24 -4 -7 -1 -18 6 -26 11 -11 16 -9 31 17 15 23 21 27 27 16 7 -11 10 -10 16 4 6 17 7 17 19 0 12 -16 14 -16 34 7 11 14 20 29 21 33 0 5 5 5 11 1 6 -3 15 -1 19 6 7 12 19 0 78 -86 9 -14 14 -16 18 -6 4 7 17 25 31 40 13 15 22 22 20 17 -3 -6 1 -18 8 -28 12 -17 15 -16 37 17 l25 36 13 -25 c14 -27 25 -31 35 -15 4 6 15 8 26 5 11 -4 19 -2 19 5 0 6 4 9 9 6 5 -3 14 1 21 9 11 13 16 10 35 -21 l23 -38 17 34 17 33 21 -33 20 -32 17 23 18 22 27 -43 27 -42 19 31 c10 17 19 36 19 42 0 5 -28 38 -63 72 -66 65 -160 118 -239 137 -53 12 -179 11 -232 -1z m-42 -69 c-7 -7 -19 -7 -35 -1 -23 9 -22 10 11 10 23 1 31 -2 24 -9z"/>
</g>
<g id="layer103" fill="#f7b633" stroke="none">
<path d="M395 983 c-40 -10 -61 -63 -25 -63 11 0 20 -4 20 -10 0 -6 -39 -10 -96 -10 l-95 0 -53 -53 c-58 -57 -92 -112 -76 -122 5 -3 20 11 33 30 14 21 27 31 29 24 2 -7 14 4 27 24 12 20 24 37 26 37 2 0 14 -18 26 -40 13 -22 25 -40 28 -40 3 0 15 13 26 29 10 16 23 27 28 24 5 -3 13 0 17 7 7 12 19 0 78 -86 9 -14 14 -16 18 -6 4 7 17 25 31 40 13 15 22 22 20 17 -3 -6 1 -18 8 -28 12 -17 15 -16 37 17 19 27 27 33 36 24 7 -7 12 -18 12 -25 0 -27 20 -11 47 37 15 27 31 50 34 50 3 0 11 -10 17 -22 7 -13 18 -32 24 -43 7 -11 18 -28 25 -38 11 -18 13 -17 28 13 l17 33 21 -33 20 -32 17 23 18 22 27 -43 27 -42 19 31 c10 17 19 36 19 41 0 6 -27 37 -60 70 l-60 60 -134 0 c-134 0 -134 0 -129 23 3 16 2 18 -5 9 -7 -11 -11 -8 -17 10 -4 12 -6 29 -6 36 1 6 -3 12 -9 12 -6 0 -8 -4 -5 -10 3 -5 -1 -10 -9 -10 -10 0 -16 -9 -16 -25 0 -14 -5 -25 -11 -25 -6 0 -9 9 -6 20 3 11 1 18 -4 14 -8 -5 -13 9 -10 29 1 8 -3 8 -34 0z"/>
</g>
<g id="layer104" fill="#fcb673" stroke="none">
<path d="M395 983 c-40 -10 -61 -63 -25 -63 11 0 20 -5 20 -10 0 -7 25 -10 67 -8 59 3 68 6 71 23 2 15 1 16 -6 7 -7 -11 -11 -8 -17 10 -4 12 -6 29 -6 36 1 6 -3 12 -9 12 -6 0 -8 -4 -5 -10 3 -5 -1 -10 -9 -10 -10 0 -16 -9 -16 -25 0 -14 -5 -25 -11 -25 -6 0 -9 9 -6 20 3 11 1 18 -4 14 -8 -5 -13 9 -10 29 1 8 -3 8 -34 0z"/>
<path d="M552 958 c-18 -18 -14 -38 8 -38 21 0 26 16 12 37 -6 10 -11 10 -20 1z"/>
<path d="M610 554 c-184 -80 -390 -169 -457 -198 l-121 -52 31 -55 c63 -110 197 -210 317 -238 58 -13 172 -13 230 0 171 39 330 198 369 369 21 90 8 244 -25 303 -8 13 -59 -6 -344 -129z"/>
</g>
<g id="layer105" fill="#ffd7a2" stroke="none">
<path d="M860 655 c-14 -8 -20 -14 -15 -14 6 0 21 6 35 14 14 8 21 14 15 14 -5 0 -21 -6 -35 -14z"/>
<path d="M790 625 c-14 -8 -20 -14 -15 -14 6 0 21 6 35 14 14 8 21 14 15 14 -5 0 -21 -6 -35 -14z"/>
<path d="M700 585 c-14 -8 -20 -14 -15 -14 6 0 21 6 35 14 14 8 21 14 15 14 -5 0 -21 -6 -35 -14z"/>
<path d="M237 163 c-4 -3 -7 -15 -7 -25 0 -16 10 -18 124 -18 97 0 126 -3 136 -15 22 -26 4 -44 -47 -47 -42 -3 -48 -6 -51 -26 l-4 -24 129 4 c121 3 131 5 193 36 36 18 88 53 115 77 l50 44 -316 1 c-174 0 -319 -3 -322 -7z"/>
</g>


</svg>