<!DOCTYPE svg PUBLIC "-//W3C//DTD SVG 20010904//EN" "http://www.w3.org/TR/2001/REC-SVG-20010904/DTD/svg10.dtd">
<svg version="1.0" xmlns="http://www.w3.org/2000/svg" width="99px" height="99px" viewBox="0 0 990 990" preserveAspectRatio="xMidYMid meet">
<g id="layer101" fill="#07072e" stroke="none">
</g>
<g id="layer102" fill="#172366" stroke="none">
<path d="M376 979 c-118 -28 -251 -130 -314 -240 -83 -146 -83 -342 0 -488 63 -111 197 -212 318 -240 58 -13 172 -13 230 0 171 39 330 198 369 369 25 110 8 240 -46 349 -55 111 -199 221 -325 251 -53 12 -179 11 -232 -1z"/>
</g>
<g id="layer103" fill="#515a91" stroke="none">
</g>
<g id="layer104" fill="#4a74b3" stroke="none">
<path d="M307 956 c-38 -17 -24 -26 42 -26 45 0 59 4 69 20 12 19 10 20 -35 19 -27 0 -60 -6 -76 -13z"/>
<path d="M460 950 c9 -17 19 -20 73 -17 47 2 62 6 62 17 0 12 -16 16 -73 18 -71 3 -73 2 -62 -18z"/>
<path d="M650 950 c0 -5 9 -10 21 -10 11 0 17 5 14 10 -3 6 -13 10 -21 10 -8 0 -14 -4 -14 -10z"/>
<path d="M15 633 c-17 -42 -18 -198 -1 -262 44 -171 196 -321 366 -360 58 -13 172 -13 230 0 111 25 260 132 304 217 l17 33 -38 15 c-21 9 -220 95 -443 191 -223 97 -410 177 -416 180 -6 2 -15 -4 -19 -14z"/>
</g>
<g id="layer105" fill="#5688cb" stroke="none">
<path d="M15 633 c-14 -35 -17 -188 -6 -245 12 -55 14 -58 43 -58 29 0 30 2 24 31 -5 27 -4 29 10 15 19 -20 19 -20 38 0 9 8 16 10 16 4 0 -6 -7 -13 -15 -16 -8 -4 -15 -12 -15 -20 0 -12 47 -14 279 -14 209 0 280 3 283 12 3 9 19 6 57 -11 29 -12 55 -20 57 -18 3 2 -10 10 -28 17 -18 8 -66 29 -107 48 -79 36 -621 272 -626 272 -2 0 -6 -8 -10 -17z"/>
</g>
<g id="layer106" fill="#b7c4d9" stroke="none">
<path d="M4 495 c0 -49 1 -71 3 -48 2 23 2 64 0 90 -2 26 -3 8 -3 -42z"/>
</g>
<g id="layer107" fill="#eef3fa" stroke="none">
<path d="M84 405 c-4 -9 -2 -21 4 -27 15 -15 44 -1 40 19 -4 23 -36 29 -44 8z"/>
</g>


</svg>