<!DOCTYPE svg PUBLIC "-//W3C//DTD SVG 20010904//EN" "http://www.w3.org/TR/2001/REC-SVG-20010904/DTD/svg10.dtd">
<svg version="1.0" xmlns="http://www.w3.org/2000/svg" width="99px" height="99px" viewBox="0 0 990 990" preserveAspectRatio="xMidYMid meet">
<g id="layer101" fill="#2e2167" stroke="none">
<path d="M376 979 c-118 -28 -251 -130 -314 -240 -83 -146 -83 -342 0 -488 63 -111 197 -212 318 -240 58 -13 172 -13 230 0 171 39 330 198 369 369 25 110 8 240 -46 349 -55 111 -199 221 -325 251 -53 12 -179 11 -232 -1z"/>
</g>
<g id="layer102" fill="#5e4391" stroke="none">
<path d="M508 934 l-36 -58 -13 27 c-14 31 -24 34 -37 11 -7 -13 -13 -9 -33 20 -28 41 -42 45 -63 14 -12 -16 -18 -19 -29 -10 -26 22 -153 -75 -208 -157 l-29 -45 52 -28 c101 -55 174 -149 204 -262 13 -50 20 -237 8 -248 -3 -4 -72 42 -152 101 -187 137 -172 129 -161 79 6 -23 12 -44 14 -48 2 -4 68 -53 146 -110 l141 -102 -4 -41 c-4 -37 -2 -41 32 -55 47 -20 193 -27 260 -13 182 39 342 198 381 381 13 63 8 215 -9 232 -9 9 -12 4 -12 -22 0 -60 -12 -67 -56 -34 -22 16 -45 35 -53 42 -17 16 -22 12 -15 -14 3 -11 27 -35 55 -53 27 -19 49 -37 48 -40 0 -3 -15 -46 -33 -96 -25 -69 -36 -89 -49 -87 -18 3 -23 -18 -8 -34 6 -5 -1 -32 -17 -67 -15 -33 -30 -55 -34 -51 -5 4 -8 170 -8 370 l0 362 -32 19 c-18 11 -59 30 -90 43 -54 22 -59 23 -76 6 -18 -16 -20 -15 -34 5 -14 22 -15 21 -50 -37z"/>
<path d="M830 801 c0 -16 48 -59 109 -95 28 -17 -24 56 -60 85 -43 34 -49 35 -49 10z"/>
<path d="M3 515 c0 -38 2 -53 4 -32 2 20 2 52 0 70 -2 17 -4 1 -4 -38z"/>
</g>
<g id="layer103" fill="#b37d99" stroke="none">
<path d="M510 934 c-35 -56 -44 -57 -64 -10 -3 7 -10 4 -19 -7 -13 -16 -16 -15 -38 18 -28 40 -42 43 -63 13 -12 -17 -18 -19 -29 -10 -11 10 -20 8 -40 -8 -14 -11 -29 -20 -34 -20 -17 0 -102 -82 -132 -127 l-31 -47 52 -28 c101 -55 174 -149 204 -262 13 -50 20 -237 8 -248 -3 -4 -72 42 -152 101 -187 137 -172 129 -161 79 6 -23 12 -44 14 -48 2 -4 68 -53 146 -110 l141 -102 -4 -41 c-4 -37 -2 -41 32 -55 47 -20 193 -27 260 -13 178 38 339 195 379 371 12 50 14 161 5 209 -7 34 -24 33 -24 -2 0 -48 -15 -51 -67 -13 -57 41 -63 43 -56 18 2 -10 26 -33 54 -51 27 -19 49 -37 48 -40 0 -3 -15 -46 -33 -96 -25 -69 -36 -89 -49 -87 -18 3 -23 -18 -8 -34 6 -5 -1 -32 -18 -69 -31 -68 -30 -69 -77 45 l-32 75 30 26 c40 33 34 60 -5 28 -16 -12 -32 -18 -36 -13 -8 9 -41 101 -41 115 0 4 25 25 55 46 31 21 55 46 55 56 0 25 -9 22 -65 -22 -27 -22 -52 -38 -56 -35 -4 2 -12 33 -19 70 -14 74 -23 58 79 129 24 17 49 38 55 47 23 37 -6 28 -71 -21 -37 -28 -71 -51 -75 -51 -12 0 -9 95 3 127 5 15 26 44 46 65 34 35 35 36 14 47 -17 10 -23 7 -37 -15 l-17 -25 -22 27 c-16 20 -24 24 -30 15 -5 -9 -12 -6 -24 12 l-16 25 -35 -54z"/>
<path d="M841 789 c8 -11 37 -37 64 -57 l49 -37 -19 33 c-21 35 -75 82 -96 82 -8 0 -8 -6 2 -21z"/>
</g>
<g id="layer104" fill="#9d78af" stroke="none">
<path d="M375 774 l-139 -65 -76 35 -75 34 -12 -21 c-10 -20 -7 -24 40 -50 61 -33 128 -95 153 -143 10 -19 22 -34 27 -34 4 0 5 -4 2 -10 -3 -5 -1 -10 4 -10 6 0 11 -6 11 -12 0 -10 39 -12 167 -10 151 3 169 1 181 -15 12 -16 12 -16 10 6 -2 18 5 28 32 43 19 11 39 26 43 34 4 8 14 14 22 14 8 0 12 6 9 14 -8 20 -35 10 -78 -30 -21 -19 -43 -33 -50 -30 -8 3 -8 5 0 5 8 1 8 17 -2 59 -19 80 -18 84 24 112 20 14 42 29 48 35 6 5 21 17 33 25 18 12 30 40 16 40 -2 0 -33 -20 -68 -45 -36 -25 -68 -45 -71 -45 -3 0 -6 16 -6 35 0 31 -6 39 -47 65 -26 17 -49 30 -52 29 -4 0 -69 -29 -146 -65z"/>
<path d="M308 74 c-4 -34 -2 -38 31 -52 48 -20 194 -27 261 -13 58 12 172 65 191 87 10 12 -27 14 -234 14 l-245 0 -4 -36z"/>
</g>
<g id="layer105" fill="#f6b2a0" stroke="none">
<path d="M375 774 l-139 -65 -76 35 -75 34 -12 -21 c-10 -20 -7 -24 40 -50 61 -33 128 -95 153 -143 10 -19 22 -34 27 -34 4 0 5 -4 2 -10 -3 -5 -1 -10 4 -10 6 0 11 -6 11 -12 0 -10 39 -12 167 -10 151 3 169 1 181 -15 11 -16 12 -16 10 7 -2 16 4 27 18 34 32 17 84 64 84 76 0 14 -47 -10 -84 -44 -15 -15 -33 -25 -40 -22 -8 3 -8 5 0 5 8 1 8 17 -2 59 -8 31 -14 64 -14 72 1 8 32 38 70 65 38 28 70 56 70 63 0 18 -3 16 -73 -33 -36 -25 -68 -45 -71 -45 -3 0 -6 16 -6 35 0 31 -6 39 -47 65 -26 17 -49 30 -52 29 -4 0 -69 -29 -146 -65z"/>
<path d="M840 797 c0 -8 23 -31 50 -51 74 -53 62 -18 -12 38 -28 21 -38 24 -38 13z"/>
<path d="M961 583 c-6 -24 -14 -43 -16 -43 -3 0 -27 16 -55 36 -42 30 -50 33 -50 17 0 -10 21 -32 50 -52 33 -23 49 -40 46 -50 -3 -9 -7 -32 -11 -51 -5 -26 -3 -31 4 -20 7 10 11 11 11 3 0 -7 11 -13 25 -13 25 0 25 1 24 83 -1 45 -4 93 -8 107 -7 23 -9 22 -20 -17z"/>
</g>
<g id="layer106" fill="#000000" stroke="none">
<path d="M750 585 c-7 -9 -11 -18 -8 -20 3 -3 11 1 18 10 7 9 11 18 8 20 -3 3 -11 -1 -18 -10z"/>
<path d="M840 592 c0 -5 12 -14 27 -21 28 -13 28 -13 9 8 -20 22 -36 27 -36 13z"/>
</g>


</svg>